<svg width="180" height="30" viewBox="0 0 180 30" fill="none" xmlns="http://www.w3.org/2000/svg">
<path d="M10.956 29.216C8.08134 29.216 5.79334 28.644 4.092 27.5C2.42 26.3267 1.32 24.7133 0.792002 22.66C0.264002 20.5773 0.293335 18.1573 0.880002 15.4C1.55467 12.32 2.56667 9.636 3.916 7.348C5.26534 5.03067 7.02534 3.22667 9.196 1.936C11.3667 0.645333 14.0213 -9.53674e-07 17.16 -9.53674e-07C18.7733 -9.53674e-07 20.2107 0.102666 21.472 0.308C22.7627 0.513333 23.936 0.806666 24.992 1.188L24.508 3.344C23.4813 2.96267 22.3227 2.66933 21.032 2.464C19.7413 2.22933 18.3773 2.112 16.94 2.112C14.2413 2.112 11.9827 2.66933 10.164 3.784C8.34534 4.86933 6.87867 6.40933 5.764 8.404C4.67867 10.3693 3.84267 12.7013 3.256 15.4C2.728 17.864 2.61067 19.976 2.904 21.736C3.19734 23.4667 4.03334 24.8013 5.412 25.74C6.82 26.6787 8.90267 27.148 11.66 27.148C13.0387 27.148 14.4173 27.0307 15.796 26.796C17.204 26.532 18.436 26.2093 19.492 25.828L21.604 15.752H13.552L13.992 13.816H24.244L21.428 27.06C20.5187 27.588 19.2133 28.0867 17.512 28.556C15.8107 28.996 13.6253 29.216 10.956 29.216ZM29.6502 28.776L31.8942 18.172L25.5582 0.439999H27.9342L33.4342 16.06L45.5342 0.439999H48.1742L34.3142 18.172L32.0702 28.776H29.6502ZM42.6518 28.776L48.6358 0.439999H51.3198L57.1278 21.428L71.8238 0.439999H74.7718L68.7878 28.776H66.4118L71.6478 3.96L57.6998 23.848H55.8078L50.2638 3.96L45.0278 28.776H42.6518ZM76.581 28.776L82.565 0.439999H97.173C99.989 0.439999 102.042 1.144 103.333 2.552C104.624 3.96 105.02 5.83733 104.521 8.184C104.198 9.68 103.641 10.9413 102.849 11.968C102.086 12.9653 101.162 13.7427 100.077 14.3C101.28 14.7693 102.145 15.5027 102.673 16.5C103.201 17.468 103.289 18.788 102.937 20.46C102.38 23.1587 101.192 25.2267 99.373 26.664C97.5836 28.072 95.1196 28.776 91.981 28.776H76.581ZM87.229 11.968H92.993C94.225 11.968 95.1783 11.6893 95.853 11.132C96.5276 10.5747 96.9676 9.79733 97.173 8.8C97.4076 7.71467 97.305 6.908 96.865 6.38C96.425 5.82267 95.4716 5.544 94.005 5.544H88.593L87.229 11.968ZM84.721 23.716H91.189C92.6263 23.716 93.6676 23.452 94.313 22.924C94.9876 22.396 95.4716 21.4573 95.765 20.108C95.9996 19.0227 95.8676 18.216 95.369 17.688C94.8703 17.1307 93.873 16.852 92.377 16.852H86.173L84.721 23.716ZM102.171 28.776L108.155 0.439999H122.323C124.201 0.439999 125.785 0.850665 127.075 1.672C128.395 2.464 129.319 3.59333 129.847 5.06C130.405 6.49733 130.463 8.19867 130.023 10.164C129.642 12.0707 128.806 13.7427 127.515 15.18C126.254 16.6173 124.714 17.688 122.895 18.392C123.218 18.7147 123.453 19.0813 123.599 19.492C123.775 19.8733 123.937 20.416 124.083 21.12L125.843 28.776H118.451L116.779 21.56C116.633 20.8853 116.383 20.4307 116.031 20.196C115.709 19.932 115.166 19.8 114.403 19.8H111.147L109.255 28.776H102.171ZM112.291 14.344H117.527C118.906 14.344 120.05 14.0067 120.959 13.332C121.898 12.628 122.514 11.572 122.807 10.164C123.13 8.756 123.101 7.7 122.719 6.996C122.367 6.26267 121.341 5.896 119.639 5.896H114.095L112.291 14.344ZM139.542 29.216C136.726 29.216 134.365 28.688 132.458 27.632C130.581 26.576 129.275 24.9773 128.542 22.836C127.809 20.6947 127.794 17.996 128.498 14.74C129.613 9.48933 131.563 5.72 134.35 3.432C137.137 1.144 140.95 -9.53674e-07 145.79 -9.53674e-07C148.606 -9.53674e-07 150.953 0.527999 152.83 1.584C154.737 2.61067 156.042 4.20933 156.746 6.38C157.479 8.55067 157.479 11.3373 156.746 14.74C155.69 19.6973 153.754 23.3493 150.938 25.696C148.151 28.0427 144.353 29.216 139.542 29.216ZM140.818 23.188C143.194 23.188 145.071 22.5133 146.45 21.164C147.858 19.7853 148.87 17.644 149.486 14.74C149.955 12.54 150.117 10.8093 149.97 9.548C149.823 8.28667 149.295 7.392 148.386 6.864C147.506 6.336 146.201 6.072 144.47 6.072C142.065 6.072 140.173 6.732 138.794 8.052C137.415 9.34267 136.389 11.572 135.714 14.74C135.303 16.764 135.171 18.4067 135.318 19.668C135.465 20.9 135.978 21.7947 136.858 22.352C137.738 22.9093 139.058 23.188 140.818 23.188ZM163.658 29.216C161.781 29.216 160.05 29.0693 158.466 28.776C156.912 28.512 155.606 28.116 154.55 27.588L155.826 21.56C157.029 22.1173 158.364 22.572 159.83 22.924C161.326 23.276 162.778 23.452 164.186 23.452C165.946 23.452 167.296 23.2907 168.234 22.968C169.173 22.6453 169.76 21.9413 169.994 20.856C170.141 20.1227 170.053 19.536 169.73 19.096C169.408 18.656 168.792 18.2747 167.882 17.952C167.002 17.6 165.8 17.1893 164.274 16.72C161.546 15.8693 159.728 14.828 158.818 13.596C157.938 12.3347 157.733 10.5893 158.202 8.36C158.789 5.66133 160.197 3.59333 162.426 2.156C164.685 0.718666 167.706 -9.53674e-07 171.49 -9.53674e-07C173.133 -9.53674e-07 174.702 0.131999 176.198 0.395999C177.694 0.630666 178.897 0.909333 179.806 1.232L178.486 7.304C177.313 6.80533 176.11 6.43867 174.878 6.204C173.676 5.96933 172.473 5.852 171.27 5.852C169.686 5.852 168.366 5.99867 167.31 6.292C166.284 6.58533 165.653 7.26 165.418 8.316C165.301 8.932 165.374 9.43067 165.638 9.812C165.902 10.164 166.43 10.4867 167.222 10.78C168.044 11.0733 169.158 11.4253 170.566 11.836C172.766 12.452 174.38 13.2 175.406 14.08C176.462 14.9307 177.108 15.928 177.342 17.072C177.577 18.1867 177.548 19.448 177.254 20.856C176.726 23.3493 175.318 25.3733 173.03 26.928C170.772 28.4533 167.648 29.216 163.658 29.216Z" fill="white"/>
</svg>
